<svg xmlns="http://www.w3.org/2000/svg" width="1088.589" height="1568.494" viewBox="0 0 1088.589 1568.494"><defs><style>.a{fill:none;stroke:#41c363;stroke-linecap:round;stroke-linejoin:round;stroke-width:1.15px;}.b{fill:#41c363;}</style></defs><g transform="matrix(0.978, 0.208, -0.208, 0.978, 82.013, -116.674)"><path class="a" d="M373.9,785.3c19.9-56.9,42.6-126.7,32.9-179.4C373.8,426.3,165.6,455,165.1,455.1a5.808,5.808,0,0,1,1-.1"/><path class="a" d="M335,990.7a567.285,567.285,0,0,1,9.8-108"/><path class="a" d="M237.9,326.6c83.7,10,167.6,57.6,203,88.8,44.3,39,77,91.1,97.3,154.8,26.1,82.1-7.2,177.5-34,254.1-10.5,29.9-20.3,58.2-24.6,80.5-9.9,51.7-10.3,107.2-1.2,160.5A455.439,455.439,0,0,0,547,1239.4c40.1,61.1,95.3,114.3,164.3,158.1,78,49.6,174.3,87.4,286,112.5"/><path class="a" d="M395.9,466.3c-2.1-2-4.2-3.9-6.4-5.8-28.2-24.8-62.6-43.2-102.3-54.6-68.8-19.7-129.3-11.7-129.9-11.6"/><path class="a" d="M518,52.8A440.587,440.587,0,0,1,632.9,95.5a430.864,430.864,0,0,1,96.2,70.7,419.368,419.368,0,0,1,72.1,93.4,400.552,400.552,0,0,1,42.6,110.9"/><path class="a" d="M353.7,44.9A616.853,616.853,0,0,1,532,102.8,593.757,593.757,0,0,1,679.4,207.9a571.493,571.493,0,0,1,107,143,558.633,558.633,0,0,1,57.3,171.8"/><path class="a" d="M187.5,97.2S596.1,68,744.1,406.5c108.5,248.1,28.5,397.9,13,495-18.2,114.1-63.8,317,291.7,359.9"/><path class="a" d="M731.2,686.2a510.112,510.112,0,0,1-32.1,143.7"/><path class="a" d="M168.6,150.7a659.686,659.686,0,0,1,158,11.9c51.6,10.2,101.3,26.6,146.4,48.5s85.7,49.5,119.1,82.1c33.5,32.7,61.3,70.9,83.2,112.9A505.342,505.342,0,0,1,722.4,541"/><path class="a" d="M261,532.1c17,5.5,33,14.9,47.9,29.4,14.7,14.3,24.3,29.4,29.9,45.2s7.4,32.4,6.5,49.6-4.5,35.2-9.6,53.9-11.6,38-18.3,58.1c-8.2,24.3-16.6,49.4-23.4,75.4s-11.7,53-13,81"/><path class="a" d="M407.2,1075.1c-10.2-60.1-9.8-122.9,1.4-181.4,5.1-26.6,15.7-56.9,26.9-88.9,23.9-68.4,68.6-169,14.7-263.6"/><path class="a" d="M746.6,1346.3c71.7,45.5,160.9,80.5,265.2,103.9"/><path class="a" d="M541.5,1055.4a397.275,397.275,0,0,0,59.6,151.4"/><path class="a" d="M380.2,303.8C507,353.6,632.4,464.5,603.9,710.5c-5.6,48.5-25.1,93.3-39,133.2"/><path class="a" d="M655.3,1174.1c30.3,46.3,72.9,87,126.6,121.1,65.3,41.5,147.6,73.5,244.5,95.3"/><path class="a" d="M667.5,717.2c-2.5,70.7-91.2,207.5-62.8,328.2"/><path class="a" d="M136,203.5c11.2-1.6,74.5-3.1,150,10.5,46.5,8.4,90,21,129.6,37.5,50.8,21.2,95,49,131.4,82.5A372.75,372.75,0,0,1,648,488.9"/><path class="a" d="M709.5,1141.5c25.4,38.8,61.7,73.3,107.8,102.6"/><circle class="b" cx="4.1" cy="4.1" r="4.1" transform="translate(544.8 182.1)"/><circle class="b" cx="4.1" cy="4.1" r="4.1" transform="translate(569.7 196.3)"/><circle class="b" cx="4.1" cy="4.1" r="4.1" transform="translate(557.3 188.6)"/><circle class="b" cx="4.1" cy="4.1" r="4.1" transform="translate(764.8 465.1)"/><circle class="b" cx="4.1" cy="4.1" r="4.1" transform="translate(773.8 492.4)"/><circle class="b" cx="4.1" cy="4.1" r="4.1" transform="translate(769.7 478.4)"/><ellipse class="b" cx="4.1" cy="4" rx="4.1" ry="4" transform="translate(546.165 342.492) rotate(-72.243)"/><ellipse class="b" cx="4.1" cy="4" rx="4.1" ry="4" transform="translate(566.597 362.238) rotate(-72.243)"/><ellipse class="b" cx="4.1" cy="4" rx="4.1" ry="4" transform="translate(556.522 351.875) rotate(-72.243)"/><ellipse class="b" cx="4.1" cy="4" rx="4.1" ry="4" transform="translate(383.513 554.463) rotate(-49.014)"/><ellipse class="b" cx="4.1" cy="4" rx="4.1" ry="4" transform="translate(394.759 580.604) rotate(-49.014)"/><ellipse class="b" cx="4.1" cy="4" rx="4.1" ry="4" transform="translate(389.517 567.056) rotate(-49.014)"/><ellipse class="b" cx="4.1" cy="4" rx="4.1" ry="4" transform="translate(385.556 729.563) rotate(-10.027)"/><ellipse class="b" cx="4.1" cy="4" rx="4.1" ry="4" transform="translate(377.452 756.753) rotate(-10.027)"/><ellipse class="b" cx="4.1" cy="4" rx="4.1" ry="4" transform="translate(382.056 743.06) rotate(-10.027)"/><circle class="b" cx="4.1" cy="4.1" r="4.1" transform="translate(760.2 860.1)"/><circle class="b" cx="4.1" cy="4.1" r="4.1" transform="translate(767.3 829.6)"/><circle class="b" cx="4.1" cy="4.1" r="4.1" transform="translate(763.8 844.8)"/><ellipse class="b" cx="4.1" cy="4" rx="4.1" ry="4" transform="translate(920.277 1235.799) rotate(-35.521)"/><ellipse class="b" cx="4.1" cy="4" rx="4.1" ry="4" transform="matrix(0.814, -0.581, 0.581, 0.814, 891.407, 1224.641)"/><ellipse class="b" cx="4.1" cy="4" rx="4.1" ry="4" transform="matrix(0.814, -0.581, 0.581, 0.814, 905.934, 1230.217)"/><circle class="b" cx="4.1" cy="4.1" r="4.1" transform="translate(530.859 724.436) rotate(-69.581)"/><circle class="b" cx="4.1" cy="4.1" r="4.1" transform="translate(537.129 693.738) rotate(-69.581)"/><circle class="b" cx="4.1" cy="4.1" r="4.1" transform="translate(534.396 709.189) rotate(-69.581)"/><circle class="b" cx="4.1" cy="4.1" r="4.1" transform="translate(490.005 1130.827) rotate(-9.602)"/><circle class="b" cx="4.1" cy="4.1" r="4.1" transform="translate(481.51 1100.724) rotate(-9.602)"/><circle class="b" cx="4.1" cy="4.1" r="4.1" transform="translate(486.112 1115.724) rotate(-9.602)"/><circle class="b" cx="4.1" cy="4.1" r="4.1" transform="translate(767.112 1434.064) rotate(-87.938)"/><circle class="b" cx="4.1" cy="4.1" r="4.1" transform="translate(738.744 1420.573) rotate(-87.938)"/><circle class="b" cx="4.1" cy="4.1" r="4.1" transform="translate(753.109 1426.973) rotate(-87.938)"/><ellipse class="b" cx="4.1" cy="4" rx="4.1" ry="4" transform="translate(448.507 423.445) rotate(-19.172)"/><ellipse class="b" cx="4.1" cy="4" rx="4.1" ry="4" transform="translate(423.9 404.337) rotate(-19.172)"/><ellipse class="b" cx="4.1" cy="4" rx="4.1" ry="4" transform="translate(436.41 413.651) rotate(-19.172)"/></g></svg>