<svg xmlns="http://www.w3.org/2000/svg" width="43.913" height="56.599" viewBox="0 0 43.913 56.599"><defs><style>.a{fill:#edeada;}.b{fill:#cec9ae;}</style></defs><g transform="translate(-6.5)"><path class="a" d="M50.413,13.662,36.751,0H6.5V56.6H50.413Z" transform="translate(0)"/><g transform="translate(15.283 12.686)"><path class="b" d="M16.476,22.952h24.4a.976.976,0,0,0,0-1.952h-24.4a.976.976,0,0,0,0,1.952Z" transform="translate(-15.5 -13.193)"/><path class="b" d="M16.476,14.952h9.758a.976.976,0,1,0,0-1.952H16.476a.976.976,0,0,0,0,1.952Z" transform="translate(-15.5 -13)"/><path class="b" d="M40.872,29h-24.4a.976.976,0,0,0,0,1.952h24.4a.976.976,0,0,0,0-1.952Z" transform="translate(-15.5 -13.387)"/><path class="b" d="M40.872,37h-24.4a.976.976,0,0,0,0,1.952h24.4a.976.976,0,0,0,0-1.952Z" transform="translate(-15.5 -13.58)"/><path class="b" d="M40.872,45h-24.4a.976.976,0,0,0,0,1.952h24.4a.976.976,0,0,0,0-1.952Z" transform="translate(-15.5 -13.773)"/></g><path class="b" d="M37.5,0V13.662H51.162Z" transform="translate(-0.749)"/></g></svg>