<svg xmlns="http://www.w3.org/2000/svg" width="1088.589" height="1568.493" viewBox="0 0 1088.589 1568.493"><defs><style>.a{fill:none;stroke:#41c363;stroke-linecap:round;stroke-linejoin:round;stroke-width:1.15px;}.b{fill:#41c363;}</style></defs><g transform="matrix(-0.978, 0.208, -0.208, -0.978, 1187.494, 1388.604)"><path class="a" d="M208.8,0c19.9,56.9,42.6,126.7,32.9,179.4C208.7,359,.5,330.3,0,330.2a5.808,5.808,0,0,0,1,.1" transform="translate(29.1 724.7)"/><path class="a" d="M.009,0a567.285,567.285,0,0,0,9.8,108" transform="translate(198.991 519.3)"/><path class="a" d="M0,1183.4c83.7-10,167.6-57.6,203-88.8,44.3-39,77-91.1,97.3-154.8,26.1-82.1-7.2-177.5-34-254.1-10.5-29.9-20.3-58.2-24.6-80.5-9.9-51.7-10.3-107.2-1.2-160.5a455.438,455.438,0,0,1,68.6-174.1c40.1-61.1,95.3-114.3,164.3-158.1,78-49.6,174.3-87.4,286-112.5" transform="translate(101.9 0)"/><path class="a" d="M238.6,0c-2.1,2-4.2,3.9-6.4,5.8C204,30.6,169.6,49,129.9,60.4,61.1,80.1.6,72.1,0,72" transform="translate(21.3 1043.7)"/><path class="a" d="M0,317.7A440.586,440.586,0,0,0,114.9,275a430.864,430.864,0,0,0,96.2-70.7,419.368,419.368,0,0,0,72.1-93.4A400.552,400.552,0,0,0,325.8,0" transform="translate(382 1139.5)"/><path class="a" d="M0,477.8a616.851,616.851,0,0,0,178.3-57.9A593.757,593.757,0,0,0,325.7,314.8a571.494,571.494,0,0,0,107-143A558.633,558.633,0,0,0,490,0" transform="translate(217.7 987.3)"/><path class="a" d="M0,1164.2s408.6,29.2,556.6-309.3c108.5-248.1,28.5-397.9,13-495C551.4,245.8,505.8,42.9,861.3,0" transform="translate(51.5 248.6)"/><path class="a" d="M32.1,143.7A510.112,510.112,0,0,0,0,0" transform="translate(563.1 680.1)"/><path class="a" d="M0,390.3a659.686,659.686,0,0,0,158-11.9c51.6-10.2,101.3-26.6,146.4-48.5s85.7-49.5,119.1-82.1c33.5-32.7,61.3-70.9,83.2-112.9A505.342,505.342,0,0,0,553.8,0" transform="translate(32.6 969)"/><path class="a" d="M0,392.6c17-5.5,33-14.9,47.9-29.4,14.7-14.3,24.3-29.4,29.9-45.2s7.4-32.4,6.5-49.6-4.5-35.2-9.6-53.9-11.6-38-18.3-58.1C48.2,132.1,39.8,107,33,81S21.3,28,20,0" transform="translate(125 585.3)"/><path class="a" d="M7.339,0c-10.2,60.1-9.8,122.9,1.4,181.4,5.1,26.6,15.7,56.9,26.9,88.9,23.9,68.4,68.6,169,14.7,263.6" transform="translate(263.861 434.9)"/><path class="a" d="M0,103.9C71.7,58.4,160.9,23.4,265.2,0" transform="translate(610.6 59.8)"/><path class="a" d="M0,151.4A397.274,397.274,0,0,1,59.6,0" transform="translate(405.5 303.2)"/><path class="a" d="M0,539.9c126.8-49.8,252.2-160.7,223.7-406.7-5.6-48.5-25.1-93.3-39-133.2" transform="translate(244.2 666.3)"/><path class="a" d="M0,216.4c30.3-46.3,72.9-87,126.6-121.1C191.9,53.8,274.2,21.8,371.1,0" transform="translate(519.3 119.5)"/><path class="a" d="M68.4,328.2C65.9,257.5-22.8,120.7,5.6,0" transform="translate(463.098 464.6)"/><path class="a" d="M0,285.4c11.2,1.6,74.5,3.1,150-10.5,46.5-8.4,90-21,129.6-37.5,50.8-21.2,95-49,131.4-82.5A372.75,372.75,0,0,0,512,0" transform="translate(0 1021.1)"/><path class="a" d="M0,102.6C25.4,63.8,61.7,29.3,107.8,0" transform="translate(573.5 265.9)"/><ellipse class="b" cx="4.1" cy="4.1" rx="4.1" ry="4.1" transform="translate(408.8 1319.7)"/><ellipse class="b" cx="4.1" cy="4.1" rx="4.1" ry="4.1" transform="translate(433.7 1305.5)"/><ellipse class="b" cx="4.1" cy="4.1" rx="4.1" ry="4.1" transform="translate(421.3 1313.2)"/><ellipse class="b" cx="4.1" cy="4.1" rx="4.1" ry="4.1" transform="translate(628.8 1036.7)"/><ellipse class="b" cx="4.1" cy="4.1" rx="4.1" ry="4.1" transform="translate(637.8 1009.4)"/><ellipse class="b" cx="4.1" cy="4.1" rx="4.1" ry="4.1" transform="translate(633.7 1023.4)"/><ellipse class="b" cx="4.1" cy="4" rx="4.1" ry="4" transform="translate(417.784 1165.068) rotate(72.243)"/><ellipse class="b" cx="4.1" cy="4" rx="4.1" ry="4" transform="translate(438.217 1145.322) rotate(72.243)"/><ellipse class="b" cx="4.1" cy="4" rx="4.1" ry="4" transform="translate(428.141 1155.685) rotate(72.243)"/><ellipse class="b" cx="4.1" cy="4" rx="4.1" ry="4" transform="matrix(0.656, 0.755, -0.755, 0.656, 253.552, 950.29)"/><ellipse class="b" cx="4.1" cy="4" rx="4.1" ry="4" transform="matrix(0.656, 0.755, -0.755, 0.656, 264.798, 924.149)"/><ellipse class="b" cx="4.1" cy="4" rx="4.1" ry="4" transform="matrix(0.656, 0.755, -0.755, 0.656, 259.556, 937.697)"/><ellipse class="b" cx="4.1" cy="4" rx="4.1" ry="4" transform="matrix(0.985, 0.174, -0.174, 0.985, 250.949, 772.56)"/><ellipse class="b" cx="4.1" cy="4" rx="4.1" ry="4" transform="matrix(0.985, 0.174, -0.174, 0.985, 242.845, 745.369)"/><ellipse class="b" cx="4.1" cy="4" rx="4.1" ry="4" transform="matrix(0.985, 0.174, -0.174, 0.985, 247.448, 759.062)"/><ellipse class="b" cx="4.1" cy="4.1" rx="4.1" ry="4.1" transform="translate(624.2 641.7)"/><ellipse class="b" cx="4.1" cy="4.1" rx="4.1" ry="4.1" transform="translate(631.3 672.2)"/><ellipse class="b" cx="4.1" cy="4.1" rx="4.1" ry="4.1" transform="translate(627.8 657)"/><ellipse class="b" cx="4.1" cy="4" rx="4.1" ry="4" transform="translate(788.925 267.69) rotate(35.521)"/><ellipse class="b" cx="4.1" cy="4" rx="4.1" ry="4" transform="translate(760.056 278.847) rotate(35.526)"/><ellipse class="b" cx="4.1" cy="4" rx="4.1" ry="4" transform="translate(774.583 273.272) rotate(35.526)"/><ellipse class="b" cx="4.1" cy="4.1" rx="4.1" ry="4.1" transform="translate(402.544 782.703) rotate(69.581)"/><ellipse class="b" cx="4.1" cy="4.1" rx="4.1" ry="4.1" transform="translate(408.814 813.401) rotate(69.581)"/><ellipse class="b" cx="4.1" cy="4.1" rx="4.1" ry="4.1" transform="translate(406.081 797.95) rotate(69.581)"/><ellipse class="b" cx="4.1" cy="4.1" rx="4.1" ry="4.1" transform="translate(355.373 371.088) rotate(9.602)"/><ellipse class="b" cx="4.1" cy="4.1" rx="4.1" ry="4.1" transform="translate(346.878 401.191) rotate(9.602)"/><ellipse class="b" cx="4.1" cy="4.1" rx="4.1" ry="4.1" transform="translate(351.48 386.191) rotate(9.602)"/><ellipse class="b" cx="4.1" cy="4.1" rx="4.1" ry="4.1" transform="translate(639.307 75.641) rotate(87.938)"/><ellipse class="b" cx="4.1" cy="4.1" rx="4.1" ry="4.1" transform="translate(610.939 89.132) rotate(87.938)"/><ellipse class="b" cx="4.1" cy="4.1" rx="4.1" ry="4.1" transform="translate(625.304 82.732) rotate(87.938)"/><ellipse class="b" cx="4.1" cy="4" rx="4.1" ry="4" transform="matrix(0.945, 0.328, -0.328, 0.945, 315.134, 1078.998)"/><ellipse class="b" cx="4.1" cy="4" rx="4.1" ry="4" transform="matrix(0.945, 0.328, -0.328, 0.945, 290.527, 1098.107)"/><ellipse class="b" cx="4.1" cy="4" rx="4.1" ry="4" transform="matrix(0.945, 0.328, -0.328, 0.945, 303.037, 1088.793)"/></g></svg>