<svg xmlns="http://www.w3.org/2000/svg" width="40.804" height="40.804" viewBox="0 0 40.804 40.804"><defs><style>.a{fill:#007ab9;}.b{fill:#f1f2f2;}</style></defs><g transform="translate(0 0.001)"><circle class="a" cx="20.402" cy="20.402" r="20.402" transform="translate(0 -0.001)"/><g transform="translate(9.844 8.717)"><path class="b" d="M49.816,37.3v8.411H44.939V37.859c0-1.97-.7-3.316-2.47-3.316a2.667,2.667,0,0,0-2.5,1.783,3.338,3.338,0,0,0-.161,1.189v8.192H34.929s.065-13.291,0-14.667h4.877v2.078c-.01.016-.024.032-.032.048h.032v-.048a4.842,4.842,0,0,1,4.4-2.423c3.208,0,5.614,2.1,5.614,6.6ZM29.828,23.969a2.541,2.541,0,1,0-.064,5.069H29.8a2.542,2.542,0,1,0,.032-5.069Zm-2.47,21.737h4.875V31.039H27.358Z" transform="translate(-27.068 -23.969)"/></g></g></svg>